<svg xmlns="http://www.w3.org/2000/svg" width="24" height="24" viewBox="0 0 24 24">
    <g fill="none" fill-rule="evenodd">
        <path fill="#0DB2F6" d="M19.817 4.111c2.752 2.815 3.065 13.51 0 16.013-3.064 2.501-12.632 2.501-15.634 0-3.065-2.502-2.752-13.198 0-16.013 2.751-2.815 12.883-2.815 15.634 0zm-7.754 11.134c-.876 0-1.564.688-1.564 1.563 0 .876.688 1.564 1.564 1.564.875 0 1.563-.688 1.563-1.564 0-.875-.688-1.563-1.563-1.563zm.125-9.57c-1.126 0-2.002.375-2.752 1-.75.626-1.188 1.564-1.313 2.753h2.814c.062-.438.187-.813.375-1.064.188-.25.438-.375.75-.375.313 0 .563.063.751.313.25.187.313.5.313.813 0 .313-.063.625-.25.813l-1.189 1.251c-.437.438-.688.75-.813 1-.125.188-.187.564-.187 1.064v1.314h2.689v-1.001c0-.313.062-.5.125-.688.062-.188.25-.375.5-.626l.813-.813.376-.375c.125-.188.25-.313.312-.438l.25-.5c.125-.25.188-.563.188-1.064 0-1.063-.375-1.876-1.063-2.502-.688-.563-1.564-.875-2.69-.875z"/>
    </g>
</svg>
