<svg width="24" height="24" viewBox="0 0 24 24" fill="none" xmlns="http://www.w3.org/2000/svg">
    <path fill-rule="evenodd" clip-rule="evenodd" d="M19.8171 20.124C22.8821 17.621 22.5691 6.92601 19.8171 4.11101C17.0661 1.29601 6.93403 1.29601 4.18301 4.11101C1.431 6.92601 1.118 17.622 4.18301 20.124C7.18503 22.625 16.7531 22.625 19.8171 20.124ZM4.89064 15.9219H12.4218C12.7079 14.9134 13.6354 14.1719 14.7344 14.1719C15.8337 14.1719 16.7607 14.9134 17.0475 15.9219H19.1095C19.4721 15.9219 19.7657 16.2159 19.7657 16.5781C19.7657 16.9404 19.4721 17.2344 19.1095 17.2344H17.0475C16.7609 18.2428 15.8337 18.9844 14.7344 18.9844C13.6357 18.9844 12.7081 18.2428 12.4218 17.2344H4.89064C4.52839 17.2344 4.23439 16.9404 4.23439 16.5781C4.23439 16.2159 4.52839 15.9219 4.89064 15.9219ZM14.7344 4.98437C13.6357 4.98437 12.7079 5.72593 12.4218 6.73437H4.89064C4.52839 6.73437 4.23439 7.02837 4.23439 7.39062C4.23439 7.75287 4.52839 8.04687 4.89064 8.04687H12.4218C12.7081 9.05531 13.6357 9.79687 14.7344 9.79687C15.8337 9.79687 16.7609 9.05531 17.0475 8.04687H19.1095C19.4721 8.04687 19.7657 7.75287 19.7657 7.39062C19.7657 7.02837 19.4721 6.73437 19.1095 6.73437H17.0475C16.7609 5.72593 15.8337 4.98437 14.7344 4.98437ZM6.95303 11.3281C7.23915 10.3197 8.16688 9.57813 9.26566 9.57813C10.3649 9.57813 11.2922 10.3197 11.5787 11.3281H19.1095C19.4721 11.3281 19.7657 11.6221 19.7657 11.9844C19.7657 12.3466 19.4721 12.6406 19.1095 12.6406H11.5787C11.2922 13.6491 10.3649 14.3906 9.26566 14.3906C8.16688 14.3906 7.23937 13.6491 6.95303 12.6406H4.89064C4.52839 12.6406 4.23439 12.3466 4.23439 11.9844C4.23439 11.6221 4.52839 11.3281 4.89064 11.3281H6.95303Z" fill="#0DB2F6"/>
</svg>
