<svg xmlns="http://www.w3.org/2000/svg" width="64" height="64" viewBox="0 0 64 64">
    <path fill="#FFA022" d="M56 25.8h-2C54 20.2 53.8 4 32 4H12c-.8 0-1.6.6-2 1.4-2.4 8-2.4 14.6-1.8 20.4H8c-3.4 0-6 2.8-6 6v5.8c0 3.4 2.8 6 6 6h3.2C14.4 55.4 23.4 59.8 32 59.8c7.8 0 15.8-3.6 19.6-13 .8-1 1.2-2 1.6-3.2H56c3.4 0 6-2.8 6-6V32c0-3.4-2.8-6.2-6-6.2zM8 40c-1.2 0-2-1-2-2v-6c0-1.2 1-2 2-2h.6c0 .6.2 1.2.2 2 .6 2.6 1 5.2 1.2 8H8zm5.6-32.2H32c13.8 0 17 7.2 17.8 13-4-5.2-10.6-8.8-17.8-8.8-8.8 0-16.4 5.2-19.8 12.6-.6-4.8-.6-10.2 1.4-16.8zM48.2 45c-.6.6-1.6 1-2.6 1h-10c-.6-1.2-2-2.2-3.6-2.2-2.2 0-4 1.8-4 4s1.8 4 4 4c1.4 0 2.6-.8 3.4-1.8h10c-3 3.8-7.6 6-13.4 6-11.2 0-18-8.2-18-22.2 0-10 8-18 18-18s18 8 18 18c0 4.4-.6 8.2-1.8 11.2zm9.8-7.2c0 1.2-1 2-2 2h-2v-10h2c1.2 0 2 1 2 2v6z"/>
</svg>
