<svg xmlns="http://www.w3.org/2000/svg" width="64" height="64" viewBox="0 0 64 64">
    <g id="illustrations/duplicate" stroke="none" stroke-width="1" fill="none" fill-rule="evenodd">
        <path d="M11,43 L11.1492623,43.0054857 C12.1323792,43.0780174 12.9178648,43.8612265 12.9939555,44.8433495 L13,45 L13,53 L21,53 L21.1492623,53.0054857 C22.1841222,53.0818349 23,53.9456382 23,55 C23,56.0543618 22.1841222,56.9181651 21.1492623,56.9945143 L21,57 L11,57 L10.8507377,56.9945143 C9.86762078,56.9219826 9.08213523,56.1387735 9.00604447,55.1566505 L9,55 L9,45 L9.00548574,44.8507377 C9.07801742,43.8676208 9.86122651,43.0821352 10.8433495,43.0060445 L11,43 Z M52,7 C53.6568542,7 55,8.34314575 55,10 L55,46 C55,47.6568542 53.6568542,49 52,49 L44,49 L44,55.0576766 C44,56.0679029 43.1841222,56.8955476 42.1492623,56.9687008 L42,56.9739569 L32,57 C30.8954305,57 30,56.1420521 30,55.0837197 C30,54.0734933 30.8158778,53.1044524 31.8507377,53.0312992 L32,53.0260431 L40,53 L40,49 L24,49 C22.3431458,49 21,47.6568542 21,46 L21,19 L13,19 L13,27 C13,28.0543618 12.1841222,28.9181651 11.1492623,28.9945143 L11,29 C9.9456382,29 9.08183488,28.1841222 9.00548574,27.1492623 L9,27 L9,17 C9,15.9456382 9.81587779,15.0818349 10.8507377,15.0054857 L11,15 L21,15 L21,10 C21,8.34314575 22.3431458,7 24,7 L52,7 Z M50.999,11 L24.999,11 L24.999,45 L50.999,45 L50.999,11 Z M38,20 C39.0543618,20 39.9181651,20.8158778 39.9945143,21.8507377 L40,22 L40,26 L44,26 C45.1045695,26 46,26.8954305 46,28 C46,29.0543618 45.1841222,29.9181651 44.1492623,29.9945143 L44,30 L40,30 L40,34 C40,35.1045695 39.1045695,36 38,36 C36.9456382,36 36.0818349,35.1841222 36.0054857,34.1492623 L36,34 L36,30 L32,30 C30.8954305,30 30,29.1045695 30,28 C30,26.9456382 30.8158778,26.0818349 31.8507377,26.0054857 L32,26 L36,26 L36,22 C36,20.8954305 36.8954305,20 38,20 Z" id="Combined-Shape" fill="#3D77F3" fill-rule="nonzero" />
    </g>
</svg>
