<svg xmlns="http://www.w3.org/2000/svg" width="16" height="16" viewBox="0 0 16 16">
    <path fill="#07394C" fill-rule="evenodd" d="M12.314 1c.725 0 1.402.277 1.905.78.504.504.781 1.18.781 1.906 0 .664-.233 1.288-.66 1.775l-.12.13-8.463 8.458-.064.043-.049.027-.1.034-3.932.842-.074.005-.048-.002-.064-.01c-.035-.008-.068-.018-.1-.032l-.077-.04-.08-.064-.054-.058-.037-.054-.043-.09-.023-.076C1.004 14.536 1 14.5 1 14.462l.005-.071.007-.043.846-3.93.026-.066.035-.064.02-.028.051-.06 8.42-8.42c.503-.503 1.18-.78 1.904-.78zM9.267 4.447l-6.402 6.402-.624 2.91 2.91-.624 6.402-6.402-2.286-2.286zm3.047-2.37c-.388 0-.752.131-1.039.37l-.103.096-1.144 1.142 2.286 2.286 1.144-1.142c.3-.3.464-.706.464-1.143 0-.437-.165-.843-.465-1.143-.3-.3-.706-.465-1.143-.465z"/>
</svg>
