<svg xmlns="http://www.w3.org/2000/svg" width="64" height="64" viewBox="0 0 64 64">
    <g fill="#F44336">
        <path d="M22.6 22.6c.762-.763 1.976-.798 2.78-.105l.112.104L32 29.107l6.508-6.508c.799-.799 2.094-.799 2.892 0 .763.763.798 1.977.104 2.78l-.104.113-6.507 6.507 6.508 6.508c.762.763.797 1.977.104 2.781l-.104.112c-.763.762-1.977.797-2.78.104l-.113-.104L32 34.892 25.492 41.4c-.799.799-2.094.799-2.892 0-.763-.763-.798-1.977-.104-2.78l.104-.113L29.108 32l-6.509-6.507c-.762-.763-.797-1.977-.104-2.781l.104-.112z"/>
        <path d="M54 12H42v-2c0-3.309-2.691-6-6-6h-8c-3.309 0-6 2.691-6 6v2H10c-1.106 0-2 .896-2 2s.894 2 2 2h2v30c0 5.514 4.486 10 10 10h20c5.514 0 10-4.486 10-10V16h2c1.105 0 2-.896 2-2s-.895-2-2-2zm-28-2c0-1.103.896-2 2-2h8c1.104 0 2 .897 2 2v2H26v-2zm22 36c0 3.309-2.691 6-6 6H22c-3.309 0-6-2.691-6-6V16h32v30z"/>
    </g>
</svg>
