<svg xmlns="http://www.w3.org/2000/svg" width="16" height="16" viewBox="0 0 16 16">
    <path fill="#8CA4AD" fill-rule="evenodd" d="M9.438 0A6.57 6.57 0 0 1 16 6.563a6.57 6.57 0 0 1-6.563 6.562 6.524 6.524 0 0 1-3.536-1.037l-3.5 3.5a1.397 1.397 0 0 1-.995.412c-.375 0-.728-.146-.994-.412A1.397 1.397 0 0 1 0 14.594c0-.376.146-.729.412-.995l3.5-3.5a6.524 6.524 0 0 1-1.037-3.537A6.57 6.57 0 0 1 9.438 0zm0 .938a5.631 5.631 0 0 0-5.626 5.625 5.631 5.631 0 0 0 5.626 5.625 5.631 5.631 0 0 0 5.624-5.626A5.631 5.631 0 0 0 9.439.938zM12.7 4v3.488h-1.09V5.965l-2.717 2.92-1.157-1.234L6.47 9 5.7 8.178l2.036-2.172L8.89 7.238l1.931-2.075H9.43V4h3.27z"/>
</svg>
