<svg xmlns="http://www.w3.org/2000/svg" width="58" height="44" viewBox="0 0 58 44">
    <path fill="#E3E9EB" fill-rule="evenodd" d="M30.393 0c4.17 0 8.173 1.568 11.252 4.417a16.854 16.854 0 0 1 5.2 9.636c6.207 1.652 10.743 7.625 10.755 14.34 0 3.71-1.362 7.278-3.861 10.055-2.511 2.8-5.887 4.477-9.5 4.74h-.118l-8.6.012H11.976c-3.222-.18-6.242-1.724-8.528-4.333C1.22 36.317 0 33.097 0 29.782c0-4.106 1.978-7.96 5.235-10.355a10.191 10.191 0 0 1-.19-1.915c0-5.087 4.099-9.229 9.133-9.229.592 0 1.184.06 1.753.168a16.713 16.713 0 0 1 5.413-5.758A16.507 16.507 0 0 1 30.394 0zm.012 3.208c-5.2 0-9.985 3.064-12.2 7.816a1.6 1.6 0 0 1-2.002.826 5.778 5.778 0 0 0-2.025-.359c-3.27 0-5.934 2.694-5.934 5.997 0 .73.118 1.413.355 2.06.26.741-.024 1.567-.699 1.962a9.614 9.614 0 0 0-4.702 8.26c0 5.242 4.075 9.899 8.919 10.198h23.405l8.54-.012c5.709-.443 10.34-5.614 10.34-11.563 0-5.614-3.98-10.534-9.25-11.443a1.607 1.607 0 0 1-1.327-1.437C43.162 8.5 37.393 3.208 30.405 3.208zm5.145 16.394l.048.048a1.421 1.421 0 0 1 0 2.01l-4.14 4.14 4.14 4.14a1.421 1.421 0 0 1 0 2.01l-.048.048a1.421 1.421 0 0 1-2.01 0l-4.14-4.14-4.14 4.14a1.421 1.421 0 0 1-2.01 0l-.048-.048a1.421 1.421 0 0 1 0-2.01l4.14-4.14-4.14-4.14a1.421 1.421 0 0 1 0-2.01l.048-.048a1.421 1.421 0 0 1 2.01 0l4.14 4.14 4.14-4.14a1.421 1.421 0 0 1 2.01 0z"/>
</svg>
