<svg xmlns="http://www.w3.org/2000/svg" width="128" height="40" viewBox="0 0 128 40">
    <g fill="none" fill-rule="nonzero">
        <path fill="#2AA9E1" d="M10.16 30.032v-.064h-.066L0 20h20.253v20z"/>
        <path fill="#89C540" d="M10.16 9.968v.064h-.066L0 20h20.253V0z"/>
        <path fill="#FBEE32" d="M30.347 30.032v-.064h.065L40.506 20H20.253v20z"/>
        <path fill="#ED2224" d="M30.347 9.968v.064h.065L40.506 20H20.253V0z"/>
        <path fill="#000" d="M10.16 10h20.187v-.032L20.253 0 10.16 9.968V10zm-.033.032h-.033L0 20l10.094 9.968h.033V10.032zM10.159 30v.032L20.253 40l10.094-9.968V30H10.16zm20.22-.032h.033L40.506 20l-10.094-9.968h-.032v19.936z" opacity=".23"/>
        <path fill="#FFF" d="M102.886 12.8h4.05v20h-4.05v-20zm8.101-6.4h4.051v26.4h-4.05V6.4zm13.983 6.467H128v4.032h-3.03V32.8h-4.267V16.9h-2.425v-4.033h2.425V9.164L124.97 6.4v6.467zM102.886 7.2h4.05v4h-4.05v-4zM92.83 23.08l3.15-10.28h4.477L94.06 32.775l-1.354.025-3.96-10.025-4.01 10.025-1.378-.025L76.962 12.8h4.477l3.15 10.28h.098l3.345-8.677h1.353l3.346 8.677h.098zM69.67 30.498c-5.086 3.726-12.266 3.29-16.862-1.306-5.077-5.076-5.077-13.308 0-18.384 5.076-5.077 13.308-5.077 18.384 0 4.596 4.596 5.032 11.776 1.306 16.862l2.937 2.937-2.828 2.828-2.937-2.937zm-2.878-2.878l-3.378-3.377 2.829-2.829 3.377 3.378a9 9 0 1 0-2.828 2.828z"/>
    </g>
</svg>
