<svg xmlns="http://www.w3.org/2000/svg" width="24" height="24" viewBox="0 0 24 24">
    <path fill="#07394C" fill-rule="evenodd" d="M12 5c3.866 0 7 3.134 7 7s-3.134 7-7 7-7-3.134-7-7 3.134-7 7-7zm1.653 10h-3.366c.204.982.517 1.965.94 2.95.254.033.511.05.773.05.24 0 .476-.014.708-.041.426-.988.74-1.974.945-2.959zm3.544.001h-2.524c-.174.898-.433 1.797-.777 2.694 1.4-.466 2.572-1.435 3.3-2.694zm-7.93 0H6.803c.717 1.238 1.863 2.196 3.235 2.67l-.085-.22c-.299-.816-.527-1.633-.686-2.45zm8.392-5h-2.894c.117.745.175 1.49.175 2.237 0 .588-.036 1.175-.109 1.762h2.827c.222-.625.342-1.298.342-2 0-.701-.12-1.374-.341-2zm-8.484 0H6.341C6.121 10.625 6 11.298 6 12c0 .702.12 1.375.342 2h2.767C9.036 13.413 9 12.826 9 12.238c0-.746.059-1.492.175-2.238zm4.577 0h-3.564c-.125.746-.188 1.492-.188 2.237 0 .587.039 1.175.117 1.763h3.706c.078-.588.117-1.176.117-1.763 0-.745-.063-1.491-.188-2.237zm-.076-3.764l.116.278c.332.827.593 1.656.78 2.485h2.625c-.765-1.324-2.022-2.328-3.52-2.763zm-3.422.022l-.191.06C8.68 6.792 7.523 7.755 6.803 9h2.564c.208-.915.504-1.829.887-2.741zM12 6c-.185 0-.369.008-.55.025-.462.993-.814 1.985-1.056 2.976h3.152c-.242-.993-.595-1.986-1.06-2.981-.16-.013-.322-.02-.486-.02z"/>
</svg>
