<svg xmlns="http://www.w3.org/2000/svg" width="24" height="24" viewBox="0 0 24 24">
    <path fill="#07394C" fill-rule="evenodd" d="M12 3c3.866 0 7 3.134 7 7 0 2.577-2.333 5.91-7 10-4.667-4.09-7-7.423-7-10 0-3.866 3.134-7 7-7zm0 2c-2.761 0-5 2.239-5 5 0 1.585 1.549 4.006 4.75 7.063l.25.237.25-.237c3.104-2.964 4.655-5.33 4.746-6.917L17 10c0-2.761-2.239-5-5-5zm0 2.5c1.38 0 2.5 1.12 2.5 2.5s-1.12 2.5-2.5 2.5-2.5-1.12-2.5-2.5 1.12-2.5 2.5-2.5zm0 1c-.828 0-1.5.672-1.5 1.5s.672 1.5 1.5 1.5 1.5-.672 1.5-1.5-.672-1.5-1.5-1.5z"/>
</svg>
