<svg xmlns="http://www.w3.org/2000/svg" width="24" height="24" viewBox="0 0 24 24">
    <path fill="#07394C" fill-rule="evenodd" d="M12 4c3.314 0 6 2.686 6 6l-.004.171c-.101 2.015-1.964 4.775-5.646 8.17l-.35.32-.01-.009C7.974 15.016 6 12.088 6 10c0-3.314 2.686-6 6-6zm0 1c-2.761 0-5 2.239-5 5 0 1.585 1.549 4.006 4.75 7.063l.25.237.25-.237c3.104-2.964 4.655-5.33 4.746-6.917L17 10c0-2.761-2.239-5-5-5zm0 2.5c1.38 0 2.5 1.12 2.5 2.5s-1.12 2.5-2.5 2.5-2.5-1.12-2.5-2.5 1.12-2.5 2.5-2.5zm0 1c-.828 0-1.5.672-1.5 1.5s.672 1.5 1.5 1.5 1.5-.672 1.5-1.5-.672-1.5-1.5-1.5z"/>
</svg>
