<svg xmlns="http://www.w3.org/2000/svg" width="32" height="32" viewBox="0 0 32 32">
    <path fill="#0DB2F6" fill-rule="evenodd" d="M20 10h-2.002V8.523c0-.286-.179-.523-.449-.523H10l4.518 2.15c.302.168.509.521.509.891v.101c-.018 1-.027 2.092-.027 3.273V20h2.55c.27 0 .45-.08.45-.366V16h2v5.148c0 .555-.476.852-1 .852h-4v3.49c0 .388-.37.623-.688.455l-7.804-3.78A1.037 1.037 0 0 1 6 21.274V7c0-.555.476-1 1-1h12c.524 0 1 .445 1 1v3zm2.546-.952l3.151 3.12a1.068 1.068 0 0 1 0 1.491L22.547 17c-.405.429-1.019.446-1.423.018-.387-.411-.339-1.096.033-1.508L22.579 14H16v-2h6.579s-1.406-1.496-1.422-1.496c-.372-.394-.42-1.096-.032-1.49.387-.411 1.017-.394 1.421.034z" opacity="1"/>
</svg>
