<svg xmlns="http://www.w3.org/2000/svg" width="24" height="24" viewBox="0 0 24 24">
    <g fill="#CCE9F5" fill-rule="evenodd">
        <path d="M15.946 4.373v17.711l-7.892-2.06V1.945l7.892 2.43zM7.526 1c-.115 0-.23.03-.325.09-.126.08-.201.2-.201.328v18.957c0 .202.185.375.437.412l8.943 2.207c.031.004.062.006.093.006a.592.592 0 0 0 .336-.098.387.387 0 0 0 .191-.318V4.043c0-.194-.17-.363-.406-.408L7.648 1.01A.762.762 0 0 0 7.527 1z"/>
        <path d="M7.574 1.01l-6.3 1.714c-.16.044-.274.217-.274.418v18.429c0 .132.048.253.132.335.06.062.14.094.218.094.026 0 .05-.004.076-.01l6.3-1.302c.16-.044.274-.218.274-.418V1.428a.464.464 0 0 0-.132-.334.302.302 0 0 0-.294-.084zM22.574 1.01l-6.3 2.714c-.16.044-.274.217-.274.418v18.429c0 .132.048.253.132.335.06.062.14.094.218.094.026 0 .05-.004.076-.01l6.3-2.302c.16-.044.274-.218.274-.418V1.428a.464.464 0 0 0-.132-.334.302.302 0 0 0-.294-.084z"/>
    </g>
</svg>
