<svg xmlns="http://www.w3.org/2000/svg" width="16" height="16" viewBox="0 0 16 16">
    <path fill="#73808B" fill-rule="evenodd" d="M8 1c1.488 0 2.867.464 4.001 1.256L12 3h.898C14.195 4.27 15 6.04 15 8c0 1.96-.805 3.731-2.103 5.002L12 13l.001.744C10.867 14.536 9.488 15 8 15c-1.487 0-2.866-.464-4-1.255V13l-.897.002C1.805 11.73 1 9.96 1 8c0-1.959.805-3.73 2.102-5H4v-.745C5.134 1.464 6.513 1 8 1zm5 9h-1v2h1v-2zm-9 0H3v2h1v-2zm2-5v6l5-3-5-3zm7 2h-1v2h1V7zM4 7H3v2h1V7zm9-3h-1v2h1V4zM4 4H3v2h1V4z"/>
</svg>
