<svg xmlns="http://www.w3.org/2000/svg" viewBox="0 0 24 16">
    <g fill="none" fill-rule="nonzero">
        <path fill="#EAF9FF" d="M0 16V0h24v16z"/>
        <path fill="#97C5D7" d="M16.487 11.977A5.974 5.974 0 0 0 18 8c0-1.586-.62-3.03-1.629-4.104l-.002-.002a5.983 5.983 0 0 0-4.161-1.889l-.117-.003a2.648 2.648 0 0 0-.182 0l-.116.003a5.983 5.983 0 0 0-4.161 1.889l-.003.002A5.975 5.975 0 0 0 6 8c0 1.525.573 2.917 1.513 3.977l.003.006c.003.005.009.007.013.012a5.986 5.986 0 0 0 4.263 2l.117.003L12 14l.09-.002.117-.003a5.986 5.986 0 0 0 4.268-2.004c.002-.004.007-.005.01-.008 0-.002 0-.004.002-.006zM6.42 8.207h2.483c.024.877.195 1.73.5 2.528a7.629 7.629 0 0 0-1.678.854 5.56 5.56 0 0 1-1.305-3.382zM7.837 4.28a7.61 7.61 0 0 0 1.634.803 7.64 7.64 0 0 0-.569 2.71H6.42A5.562 5.562 0 0 1 7.837 4.28zm9.744 3.512h-2.483a7.64 7.64 0 0 0-.57-2.71 7.61 7.61 0 0 0 1.635-.802 5.562 5.562 0 0 1 1.418 3.512zm-5.788-2.697a7.233 7.233 0 0 1-1.753-.266 7.239 7.239 0 0 1 1.753-2.283v2.549zm0 .414v2.283H9.316c.026-.9.214-1.772.552-2.58.622.18 1.267.279 1.925.297zm.414 0a7.638 7.638 0 0 0 1.925-.298c.338.809.527 1.682.552 2.581h-2.477V5.51zm0-.414V2.547A7.239 7.239 0 0 1 13.96 4.83a7.233 7.233 0 0 1-1.753.266zm2.153-.391a7.64 7.64 0 0 0-1.632-2.242 5.57 5.57 0 0 1 3.142 1.514 7.196 7.196 0 0 1-1.51.728zm-4.72 0a7.19 7.19 0 0 1-1.51-.728 5.57 5.57 0 0 1 3.142-1.514A7.638 7.638 0 0 0 9.64 4.705zm-.324 3.502h2.477v2.077a7.631 7.631 0 0 0-1.999.319 7.226 7.226 0 0 1-.478-2.396zm2.477 2.49v2.756a7.235 7.235 0 0 1-1.838-2.466 7.214 7.214 0 0 1 1.838-.29zm.414 2.756v-2.755a7.214 7.214 0 0 1 1.838.29 7.234 7.234 0 0 1-1.838 2.465zm0-3.17V8.208h2.477a7.223 7.223 0 0 1-.478 2.396 7.62 7.62 0 0 0-2-.32zm2.89-2.076h2.484a5.56 5.56 0 0 1-1.305 3.382 7.629 7.629 0 0 0-1.678-.854 7.64 7.64 0 0 0 .5-2.528zm-7.092 3.692a7.21 7.21 0 0 1 1.555-.782c.403.902.98 1.724 1.712 2.42A5.574 5.574 0 0 1 8.005 11.9zm4.723 1.638a7.63 7.63 0 0 0 1.712-2.42 7.215 7.215 0 0 1 1.555.782 5.574 5.574 0 0 1-3.267 1.638z" opacity=".9"/>
    </g>
</svg>
