<svg xmlns="http://www.w3.org/2000/svg" width="20" height="20" viewBox="0 0 20 20">
    <g fill="none" fill-rule="evenodd">
        <path fill="#0479A6" fill-rule="nonzero" d="M9.992 0C4.482 0 0 4.482 0 9.991c0 5.51 4.482 9.991 9.992 9.991 5.51 0 9.991-4.481 9.991-9.99C19.983 4.481 15.502 0 9.992 0z"/>
        <path fill="#FFF" d="M13.75 7.523v5.061a1.157 1.157 0 0 1-1.166 1.114h-.458a1.14 1.14 0 0 1-1.122-1.114v-.458a1.131 1.131 0 0 1 1.14-1.14h.777V8.093L9 9.319v4.422a1.149 1.149 0 0 1-1.149 1.14h-.45a1.157 1.157 0 0 1-1.156-1.14v-.457a1.14 1.14 0 0 1 1.157-1.14h.769V6.96a.415.415 0 0 1 .285-.397l4.75-1.477a.389.389 0 0 1 .371.06.406.406 0 0 1 .173.329v2.047z"/>
    </g>
</svg>
