<svg xmlns="http://www.w3.org/2000/svg" width="16" height="16" viewBox="0 0 16 16">
    <g fill="none" fill-rule="evenodd">
        <g fill="#07394C">
            <g>
                <g>
                    <g>
                        <g>
                            <g>
                                <g>
                                    <path d="M8 13.333V8.5H6.5c-2.414 0-4.384-1.901-4.495-4.288L2 4V2.667c0-.246.177-.45.41-.492l.09-.008h2c2.341 0 4.265 1.787 4.48 4.072l.016.248c.613-.608 1.5-.943 2.635-.982l.23-.004h2c.245 0 .45.177.492.41l.008.09v.666c0 2.403-1.286 3.747-3.63 3.829l-.231.004H9v2.833M13.36 6.5h-1.5c-1.87 0-2.791.843-2.856 2.626L9 9.5l1.5.001c1.872 0 2.794-.844 2.857-2.63l.003-.37zM3 3.166V4c0 1.869 1.464 3.395 3.308 3.495L6.5 7.5H8v-.833c0-1.869-1.464-3.395-3.308-3.495L4.5 3.167 3 3.166z" transform="translate(-1149.000000, -1524.000000) translate(107.000000, 1290.000000) translate(0.000000, 91.000000) translate(0.000000, 60.000000) translate(764.000000, 60.000000) translate(254.000000, 0.000000) translate(24.000000, 23.000000)"/>
                                </g>
                            </g>
                        </g>
                    </g>
                </g>
            </g>
        </g>
    </g>
</svg>
