<svg width="32" height="32" viewBox="0 0 32 32" fill="none" xmlns="http://www.w3.org/2000/svg">
<path d="M21.143 9C21.616 9 22 9.384 22 9.857V10.143C22 10.616 21.616 11 21.143 11H20.357V13L20.352 13.216C20.295 14.442 19.755 15.401 18.886 16.026C19.749 16.668 20.294 17.627 20.352 18.794L20.357 19.001V21H21.143C21.616 21 22 21.384 22 21.857V22.143C22 22.616 21.616 23 21.143 23H10.857C10.384 23 10 22.616 10 22.143V21.857C10 21.384 10.384 21 10.857 21H11.642V19.001L11.648 18.785C11.704 17.58 12.228 16.632 13.073 16.005C12.225 15.381 11.703 14.431 11.648 13.217L11.643 12.999L11.642 11H10.857C10.384 11 10 10.616 10 10.143V9.857C10 9.384 10.384 9 10.857 9H21.143V9ZM16 16.857L15.803 16.861C14.325 16.918 13.437 17.623 13.363 18.833L13.357 19.001V21H18.642V19.001C18.642 17.771 17.688 16.927 16.19 16.861L16 16.857V16.857ZM18.642 11H13.357V13C13.357 14.322 14.234 15.078 15.793 15.139L16 15.143L16.205 15.139C17.68 15.08 18.564 14.377 18.638 13.167L18.643 12.999L18.642 11Z" fill="#9FB6BF"/>
<circle cx="20.5" cy="22.5" r="3" fill="#3D77F3" stroke="white"/>
</svg>
