<svg xmlns="http://www.w3.org/2000/svg" width="32" height="32" viewBox="0 0 32 32">
    <g fill="none" fill-rule="evenodd">
        <g fill="#9FB6BF" fill-rule="nonzero">
            <g>
                <g>
                    <g>
                        <path d="M21.143 9c.473 0 .857.384.857.857v.286c0 .473-.384.857-.857.857h-.786v2l-.005.216c-.057 1.226-.597 2.185-1.466 2.81.863.642 1.408 1.601 1.466 2.768l.005.207V21h.786c.473 0 .857.384.857.857v.286c0 .473-.384.857-.857.857H10.857c-.473 0-.857-.384-.857-.857v-.286c0-.473.384-.857.857-.857h.785v-1.999l.006-.216c.056-1.205.58-2.153 1.425-2.78-.848-.624-1.37-1.574-1.425-2.788l-.005-.218L11.642 11h-.785c-.473 0-.857-.384-.857-.857v-.286c0-.473.384-.857.857-.857h10.286zM16 16.857l-.197.004c-1.478.057-2.366.762-2.44 1.972l-.006.168V21h5.285v-1.999c0-1.23-.954-2.074-2.452-2.14l-.19-.004zM18.642 11h-5.285v2c0 1.322.877 2.078 2.436 2.139l.207.004.205-.004c1.475-.059 2.359-.762 2.433-1.972l.005-.168L18.642 11z" transform="translate(-1348 -543) translate(120 245) translate(0 289) translate(1228 9)"/>
                    </g>
                </g>
            </g>
        </g>
    </g>
</svg>
