<svg xmlns="http://www.w3.org/2000/svg" width="16" height="16" viewBox="0 0 16 16">
    <g fill="none" fill-rule="evenodd">
        <g fill="#07394C">
            <g>
                <g>
                    <g>
                        <g>
                            <g>
                                <g>
                                    <path d="M10 1.5c2.1 0 3.878.976 3.994 2.356L14 4v8c0 1.456-1.828 2.5-4 2.5-2.1 0-3.878-.976-3.994-2.356L6 12V4l.006-.144C6.122 2.476 7.9 1.5 10 1.5zm0 10.333c-1.182 0-2.261-.309-3-.825V12c0 .753 1.307 1.5 3 1.5 1.623 0 2.89-.686 2.993-1.406L13 12l.001-.992c-.739.516-1.819.825-3.001.825zm-6.667-7c.246 0 .45.177.492.41l.008.09V5.5h.834c.276 0 .5.224.5.5 0 .245-.177.45-.41.492l-.09.008H3c-.276 0-.5.224-.5.5 0 .245.177.45.41.492L3 7.5h.667c.828 0 1.5.672 1.5 1.5 0 .772-.584 1.408-1.334 1.49v.177c0 .276-.224.5-.5.5-.245 0-.45-.177-.492-.41l-.008-.09V10.5H2c-.276 0-.5-.224-.5-.5 0-.245.177-.45.41-.492L2 9.5h1.667c.276 0 .5-.224.5-.5 0-.245-.177-.45-.41-.492l-.09-.008H3c-.828 0-1.5-.672-1.5-1.5 0-.772.583-1.408 1.333-1.49v-.177c0-.276.224-.5.5-.5zM10 9.167c-1.182 0-2.261-.31-3-.825v.991c0 .754 1.307 1.5 3 1.5 1.623 0 2.89-.685 2.993-1.406L13 9.333l.001-.992c-.739.516-1.819.826-3.001.826zm3.001-3.493c-.739.517-1.819.826-3.001.826s-2.261-.309-3-.825v.992c0 .753 1.307 1.5 3 1.5 1.623 0 2.89-.686 2.993-1.406L13 6.667l.001-.993zM10 2.5c-1.693 0-3 .747-3 1.5s1.307 1.5 3 1.5 3-.747 3-1.5-1.307-1.5-3-1.5z" transform="translate(-1149.000000, -1464.000000) translate(107.000000, 1290.000000) translate(0.000000, 91.000000) translate(0.000000, 60.000000) translate(764.000000, 0.000000) translate(254.000000, 0.000000) translate(24.000000, 23.000000)"/>
                                </g>
                            </g>
                        </g>
                    </g>
                </g>
            </g>
        </g>
    </g>
</svg>
