<svg xmlns="http://www.w3.org/2000/svg" width="16" height="16" viewBox="0 0 16 16">
    <g fill="none" fill-rule="evenodd">
        <g fill="#07394C" fill-rule="nonzero">
            <g>
                <g>
                    <path d="M3.996 2l5.495.011c.097 0 .19.028.27.08l.075.059 3.999 3.827c.079.075.13.173.148.28l.006.08.008 5.834c0 .97-.789 1.751-1.778 1.824l-.15.005-8.137-.017c-1.006 0-1.85-.742-1.929-1.693l-.006-.144V3.838c0-.966.85-1.76 1.849-1.832L3.996 2zm0 1c-.498 0-.932.35-.992.746l-.007.092v8.308c0 .415.354.777.818.83l.118.007L12.07 13c.48 0 .863-.323.92-.726l.006-.102-.008-5.173L10.167 7c-.61 0-1.102-.477-1.161-1.078L9 5.8V3.009L3.994 3zM5.5 6.5c.245 0 .45.177.492.41L6 7v3.333c0 .276-.224.5-.5.5-.245 0-.45-.177-.492-.41L5 10.333V7c0-.276.224-.5.5-.5zm2 2.667c.245 0 .45.177.492.41l.008.09v.666c0 .276-.224.5-.5.5-.245 0-.45-.177-.492-.41L7 10.333v-.666c0-.276.224-.5.5-.5zm2-1.334c.245 0 .45.177.492.41l.008.09v2c0 .276-.224.5-.5.5-.245 0-.45-.177-.492-.41L9 10.333v-2c0-.276.224-.5.5-.5zM10 3.69V5.8c0 .093.051.165.116.19l.05.01 2.245-.001L10 3.69z" transform="translate(-577.000000, -1407.000000) translate(107.000000, 1290.000000) translate(470.000000, 117.000000)"/>
                </g>
            </g>
        </g>
    </g>
</svg>
